<svg width="58" height="56" viewBox="0 0 58 56" fill="none" xmlns="http://www.w3.org/2000/svg">
<rect width="37" height="56" fill="#FBB731"/>
<path fill-rule="evenodd" clip-rule="evenodd" d="M35.5 7H38.5C49.2644 7.01239 57.9876 15.7356 58 26.5C58 27.3284 57.3284 28 56.5 28H17.5C16.6716 28 16 27.3284 16 26.5C16.0124 15.7356 24.7356 7.01239 35.5 7ZM35.4999 9.99996C26.9723 10.0102 19.8533 16.5086 19.0675 25H54.9324C54.1467 16.5085 47.0277 10.0102 38.5 9.99996H35.4999Z" fill="white"/>
<path fill-rule="evenodd" clip-rule="evenodd" d="M50.5 37.1084H56.5001C57.3285 37.1084 58.0001 37.7739 58 38.5949V41.5677C57.9951 45.6704 54.6401 48.9951 50.5 49H23.5C19.3599 48.9951 16.0049 45.6704 16 41.5677V38.5949C16 37.7739 16.6716 37.1084 17.5 37.1084H38.4999C38.8245 37.1084 39.1403 37.2127 39.3999 37.4057L44.5 41.1961L49.6 37.4057C49.8596 37.2127 50.1754 37.1084 50.5 37.1084ZM50.5 46.0271C52.9853 46.0271 55 44.0306 55 41.5677V40.0813H50.9995L45.4 44.2434C44.8667 44.6397 44.1333 44.6397 43.6 44.2434L38.0005 40.0813H19V41.5677C19 44.0306 21.0147 46.0271 23.5 46.0271H50.5Z" fill="white"/>
<path d="M56.5 31.0361H17.5C16.6716 31.0361 16 31.7158 16 32.5542C16 33.3925 16.6716 34.0723 17.5 34.0723H56.5C57.3284 34.0723 58 33.3926 58 32.5542C58 31.7157 57.3284 31.0361 56.5 31.0361Z" fill="white"/>
<path d="M29.4096 15.8555C28.5712 15.8555 27.8916 16.5351 27.8916 17.3735V18.8916C27.8916 19.73 28.5712 20.4097 29.4096 20.4097C30.2481 20.4097 30.9277 19.73 30.9277 18.8916V17.3735C30.9277 16.5351 30.2481 15.8555 29.4096 15.8555Z" fill="white"/>
<path d="M37 15.8555C36.1616 15.8555 35.4819 16.5351 35.4819 17.3735V18.8916C35.4819 19.73 36.1616 20.4097 37 20.4097C37.8384 20.4097 38.5181 19.7299 38.5181 18.8915V17.3735C38.5181 16.5351 37.8384 15.8555 37 15.8555Z" fill="white"/>
<path d="M44.5904 15.8555C43.7519 15.8555 43.0723 16.5351 43.0723 17.3735V18.8916C43.0723 19.73 43.7519 20.4097 44.5904 20.4097C45.4288 20.4097 46.1084 19.73 46.1084 18.8916V17.3735C46.1084 16.5351 45.4287 15.8555 44.5904 15.8555Z" fill="white"/>
</svg>
